# xmcd
#
# Track frame offsets: 
#        150
#        17003
#        31386
#        49118
#        69402
#        86909
#        101931
#        116795
#        130844
#        150346
#        170934
#        187335
#
# Disc length: 2781 seconds
#
# Revision: 0
# Processed by: cddbd v1.5.2PL0 Copyright (c) Steve Scherf et al.
# Submitted via: ExactAudioCopy v0.95b4
#
DISCID=ab0adb0c
DTITLE=Bob Reuter and Kamikaze Cowboy - Down in America
DYEAR=2000
DGENRE=Country
TTITLE0=Girl Like You
TTITLE1=Circles
TTITLE2=Charlie Floyd
TTITLE3=Lauri
TTITLE4=After the Party
TTITLE5=Uncle Dan
TTITLE6=It's Late
TTITLE7=True Blue
TTITLE8=Lyndberg
TTITLE9=Just a Little Bit
TTITLE10=After the Money From Mama Was Gone
TTITLE11=Endless Words
EXTD=
EXTT0=
EXTT1=
EXTT2=
EXTT3=
EXTT4=
EXTT5=
EXTT6=
EXTT7=
EXTT8=
EXTT9=
EXTT10=
EXTT11=
PLAYORDER=
